<?xml version="1.0" standalone="no"?>
<!DOCTYPE svg PUBLIC "-//W3C//DTD SVG 20010904//EN"
 "http://www.w3.org/TR/2001/REC-SVG-20010904/DTD/svg10.dtd">
<svg version="1.0" xmlns="http://www.w3.org/2000/svg"
 width="56.000000pt" height="56.000000pt" viewBox="0 0 56.000000 56.000000"
 preserveAspectRatio="xMidYMid meet">
<metadata>
Created by potrace 1.16, written by Peter Selinger 2001-2019
</metadata>
<g transform="translate(0.000000,56.000000) scale(0.100000,-0.100000)"
fill="#000000" stroke="none">
<path d="M0 280 l0 -280 280 0 280 0 0 280 0 280 -280 0 -280 0 0 -280z m359
73 c43 -53 43 -105 -1 -150 -27 -28 -39 -33 -79 -33 -40 0 -53 5 -78 31 -26
26 -31 38 -31 79 0 41 5 53 31 79 26 26 38 31 79 31 44 0 52 -4 79 -37z"/>
</g>
</svg>
